# xmcd
#
# Track frame offsets:
#	182
#	19862
#	44385
#	62147
#	82742
#	108762
#	141157
#	161637
#	187005
#	206197
#	225295
#	250890
#	272690
#
# Disc length: 3909
#
# Revision: 2
# Processed by: cddbd v1.5.1PL0 Copyright (c) Steve Scherf et al.
# Submitted via: CDex 1.50
# Normalized: r1:DSETVAR1,TDELIM( - )
#
DISCID=ac0f430d
DTITLE=Various Artist - NewAge
DYEAR=1992
DGENRE=New Age
TTITLE0=B. Laville, D.Willems - Welcome
TTITLE1=B. Laville,H. Plez, S. Julia, S. Andre - Erosion I
TTITLE2=Vangelis - Alpha
TTITLE3=B.Laville, D. Willems - ELM streets
TTITLE4=B. Laville,H. Plez, S. Julia, S. Andre - Erosion II (part one)
TTITLE5=D. Mart - Pasadenas
TTITLE6=Sakamoto - Forbidden colors
TTITLE7=J. M. Bustamente, J. Garcia - Epilogue
TTITLE8=Vangelis - Antartica
TTITLE9=B. Laville, D. Willems - Kilimandjaro decouverte
TTITLE10=B. Laville,H. Plez, S. Julia, S. Andre - Eclosion I
TTITLE11=B. Laville,H. Plez, S. Julia, S. Andre - Erosion II (part two)
TTITLE12=B. Laville, D. Willems - Kilimandjaro ouverture
EXTD=YEAR: 1992
EXTT0=
EXTT1=
EXTT2=
EXTT3=
EXTT4=
EXTT5=
EXTT6=
EXTT7=
EXTT8=
EXTT9=
EXTT10=
EXTT11=
EXTT12=
PLAYORDER=
